<svg data-name="Layer 1" xmlns="http://www.w3.org/2000/svg" width="1137" height="518.057"><path d="M144.264 510.611l-1.951-.44c21.756-96.75 76.43-184.609 153.951-247.39a444.114 444.114 0 01712.155 246.21l-1.95.444C960.417 307.225 783.196 166 575.5 166c-204.974 0-386.334 144.93-431.236 344.611z" fill="#3f3d56"/><circle cx="899.633" cy="219.903" r="54.315" fill="#ff6584"/><path fill="#3f3d56" d="M877 437.057h2v79h-2z"/><path d="M897.458 447.124c.127 27.625-19.308 50.109-19.308 50.109s-19.642-22.304-19.77-49.929 19.309-50.108 19.309-50.108 19.641 22.304 19.769 49.928z" fill="#6c63ff"/><path d="M897.458 447.124c.127 27.625-19.308 50.109-19.308 50.109s-19.642-22.304-19.77-49.929 19.309-50.108 19.309-50.108 19.641 22.304 19.769 49.928z" opacity=".1"/><circle cx="501.022" cy="248.742" r="31.248" fill="#6c63ff" opacity=".4"/><circle cx="443.19" cy="263.666" r="21.92" fill="#6c63ff" opacity=".4"/><circle cx="208.19" cy="326.666" r="21.92" fill="#6c63ff" opacity=".4"/><circle cx="856.312" cy="246.171" r="31.248" fill="#6c63ff" opacity=".4"/><path d="M56.63 507.272c1.695 6.262 7.497 10.14 7.497 10.14s3.055-6.274 1.361-12.536-7.496-10.14-7.496-10.14-3.055 6.275-1.361 12.536z" fill="#3f3d56"/><path d="M59.12 505.927c4.648 4.525 5.216 11.48 5.216 11.48s-6.969-.38-11.617-4.905-5.216-11.48-5.216-11.48 6.968.38 11.617 4.905z" fill="#6c63ff"/><path d="M668.63 507.272c1.695 6.262 7.497 10.14 7.497 10.14s3.055-6.274 1.361-12.536-7.496-10.14-7.496-10.14-3.055 6.275-1.361 12.536z" fill="#3f3d56"/><path d="M671.12 505.927c4.648 4.525 5.216 11.48 5.216 11.48s-6.969-.38-11.617-4.905-5.216-11.48-5.216-11.48 6.968.38 11.617 4.905z" fill="#6c63ff"/><path fill="#3f3d56" d="M68.137 460.203L64 453.308l38.614-33.098h99.294v9.653l-35.856 38.615-41.373 8.274-56.542-16.549z"/><path fill="#ccc" d="M219 439.633v-21.577h-13v6.804l-4.092-4.65-33.098 33.098-5.517 5.516-6.895 27.582 12.412 30.339h63.437v-62.058L219 439.633z"/><path fill="#f2f2f2" d="M64 453.308h104.81v63.438H64z"/><path fill="#3f3d56" d="M132.264 473.304h22.065v19.307h-22.065z"/><path fill="#ccc" d="M103.993 472.615H123.3v44.13h-19.307z"/><path fill="#3f3d56" d="M81.928 479.51v-6.895h-8.274v6.895h8.274zm-.69 5.516h-7.584v6.896h8.274v-6.896h-.69zm6.206-12.411h8.274v6.895h-8.274zm0 12.411h8.274v6.895h-8.274zM198.46 480.2v-6.896h-8.275v6.896h8.275zm-.69 5.516h-7.585v6.895h8.275v-6.895h-.69zm6.206-12.412h8.274v6.895h-8.274zm0 12.412h8.274v6.895h-8.274zm263.161-25.513L463 453.308l38.614-33.098h99.294v9.653l-35.856 38.615-41.373 8.274-56.542-16.549z"/><path fill="#ccc" d="M618 439.633v-21.577h-13v6.804l-4.092-4.65-33.098 33.098-5.517 5.516-6.895 27.582 12.412 30.339h63.437v-62.058L618 439.633z"/><path fill="#f2f2f2" d="M463 453.308h104.81v63.438H463z"/><path fill="#3f3d56" d="M531.264 473.304h22.065v19.307h-22.065z"/><path fill="#ccc" d="M502.993 472.615H522.3v44.13h-19.307z"/><path fill="#3f3d56" d="M480.928 479.51v-6.895h-8.274v6.895h8.274zm-.69 5.516h-7.584v6.896h8.274v-6.896h-.69zm6.206-12.411h8.274v6.895h-8.274zm0 12.411h8.274v6.895h-8.274zM597.46 480.2v-6.896h-8.275v6.896h8.275zm-.69 5.516h-7.585v6.895h8.275v-6.895h-.69zm6.206-12.412h8.274v6.895h-8.274zm0 12.412h8.274v6.895h-8.274zM280.515 344.361l-6.895-5.517 38.614-34.477h97.914v30.34l-63.437 42.752-66.196-33.098z"/><path fill="#ccc" d="M428 323.707v-18.651h-13v4.568l-4.852-5.257-31.719 34.477-12.411 8.275-19.245 140.603 29.023 29.023h67.45V340.223L428 323.707z"/><path fill="#f2f2f2" d="M273.62 338.844h104.81v177.901H273.62z"/><path fill="#ccc" d="M314.302 473.304h19.307v43.441h-19.307z"/><path fill="#3f3d56" d="M293.616 485.716v-6.895h-8.274v6.895h8.274zm-.689 5.516h-7.585v6.896h8.274v-6.896h-.689zm6.205-12.411h8.274v6.895h-8.274zm0 12.411h8.274v6.895h-8.274zm51.026-5.516v-6.895h-8.274v6.895h8.274zm-.689 5.516h-7.585v6.896h8.274v-6.896h-.689zm6.206-12.411h8.274v6.895h-8.274zm0 12.411h8.274v6.895h-8.274zm52.404-143.424v-6.895h-8.274v6.895h8.274zm-.689 5.517h-7.585v6.895h8.274v-6.895h-.689zm6.206-12.412h8.274v6.895h-8.274zm0 12.412h8.274v6.895h-8.274zm-5.517 33.098v-6.896h-8.274v6.896h8.274zm-.689 5.516h-7.585v6.895h8.274v-6.895h-.689zm6.206-12.412h8.274v6.895h-8.274zm0 12.412h8.274v6.895h-8.274zm-5.517 33.098v-6.896h-8.274v6.896h8.274zm-.689 5.516h-7.585v6.895h8.274v-6.895h-.689zm6.206-12.412h8.274v6.895h-8.274zm0 12.412h8.274v6.895h-8.274zm-5.517 33.098v-6.896h-8.274v6.896h8.274zm-.689 5.516h-7.585v6.895h8.274v-6.895h-.689zm6.206-12.412h8.274v6.895h-8.274zm0 12.412h8.274v6.895h-8.274zM285.342 347.808h79.986v16.549h-79.986zm0 33.098h79.986v16.549h-79.986zm0 33.098h79.986v16.549h-79.986zm0 33.098h79.986v16.549h-79.986zm398.173-102.741l-6.895-5.517 38.614-34.477h97.914v30.34l-63.437 42.752-66.196-33.098z"/><path fill="#ccc" d="M831 323.707v-18.651h-13v4.568l-4.852-5.257-31.719 34.477-12.411 8.275-19.245 140.603 29.023 29.023h67.45V340.223L831 323.707z"/><path fill="#f2f2f2" d="M676.62 338.844h104.81v177.901H676.62z"/><path fill="#ccc" d="M717.302 473.304h19.307v43.441h-19.307z"/><path fill="#3f3d56" d="M696.616 485.716v-6.895h-8.274v6.895h8.274zm-.689 5.516h-7.585v6.896h8.274v-6.896h-.689zm6.205-12.411h8.274v6.895h-8.274zm0 12.411h8.274v6.895h-8.274zm51.026-5.516v-6.895h-8.274v6.895h8.274zm-.689 5.516h-7.585v6.896h8.274v-6.896h-.689zm6.206-12.411h8.274v6.895h-8.274zm0 12.411h8.274v6.895h-8.274zm52.404-143.424v-6.895h-8.274v6.895h8.274zm-.689 5.517h-7.585v6.895h8.274v-6.895h-.689zm6.206-12.412h8.274v6.895h-8.274zm0 12.412h8.274v6.895h-8.274zm-5.517 33.098v-6.896h-8.274v6.896h8.274zm-.689 5.516h-7.585v6.895h8.274v-6.895h-.689zm6.206-12.412h8.274v6.895h-8.274zm0 12.412h8.274v6.895h-8.274zm-5.517 33.098v-6.896h-8.274v6.896h8.274zm-.689 5.516h-7.585v6.895h8.274v-6.895h-.689zm6.206-12.412h8.274v6.895h-8.274zm0 12.412h8.274v6.895h-8.274zm-5.517 33.098v-6.896h-8.274v6.896h8.274zm-.689 5.516h-7.585v6.895h8.274v-6.895h-.689zm6.206-12.412h8.274v6.895h-8.274zm0 12.412h8.274v6.895h-8.274zM688.342 347.808h79.986v16.549h-79.986zm0 33.098h79.986v16.549h-79.986zm0 33.098h79.986v16.549h-79.986zm0 33.098h79.986v16.549h-79.986zm216.173-102.741l-6.895-5.517 38.614-34.477h97.914v30.34l-63.437 42.752-66.196-33.098z"/><path fill="#ccc" d="M1052 323.707v-18.651h-13v4.568l-4.852-5.257-31.719 34.477-12.411 8.275-19.245 140.603 29.023 29.023h67.45V340.223L1052 323.707z"/><path fill="#f2f2f2" d="M897.62 338.844h104.81v177.901H897.62z"/><path fill="#ccc" d="M938.302 473.304h19.307v43.441h-19.307z"/><path fill="#3f3d56" d="M917.616 485.716v-6.895h-8.274v6.895h8.274zm-.689 5.516h-7.585v6.896h8.274v-6.896h-.689zm6.205-12.411h8.274v6.895h-8.274zm0 12.411h8.274v6.895h-8.274zm51.026-5.516v-6.895h-8.274v6.895h8.274zm-.689 5.516h-7.585v6.896h8.274v-6.896h-.689zm6.206-12.411h8.274v6.895h-8.274zm0 12.411h8.274v6.895h-8.274zm52.404-143.424v-6.895h-8.274v6.895h8.274zm-.689 5.517h-7.585v6.895h8.274v-6.895h-.689zm6.206-12.412h8.274v6.895h-8.274zm0 12.412h8.274v6.895h-8.274zm-5.517 33.098v-6.896h-8.274v6.896h8.274zm-.689 5.516h-7.585v6.895h8.274v-6.895h-.689zm6.206-12.412h8.274v6.895h-8.274zm0 12.412h8.274v6.895h-8.274zm-5.517 33.098v-6.896h-8.274v6.896h8.274zm-.689 5.516h-7.585v6.895h8.274v-6.895h-.689zm6.206-12.412h8.274v6.895h-8.274zm0 12.412h8.274v6.895h-8.274zm-5.517 33.098v-6.896h-8.274v6.896h8.274zm-.689 5.516h-7.585v6.895h8.274v-6.895h-.689zm6.206-12.412h8.274v6.895h-8.274zm0 12.412h8.274v6.895h-8.274zM909.342 347.808h79.986v16.549h-79.986zm0 33.098h79.986v16.549h-79.986zm0 33.098h79.986v16.549h-79.986zm0 33.098h79.986v16.549h-79.986zM0 516.057h1137v2H0zm252-79h2v79h-2z"/><path d="M272.458 447.124c.127 27.625-19.308 50.109-19.308 50.109s-19.642-22.304-19.769-49.929 19.308-50.108 19.308-50.108 19.641 22.304 19.769 49.928z" fill="#6c63ff"/><path fill="#3f3d56" d="M452 437.057h2v79h-2z"/><path d="M472.458 447.124c.127 27.625-19.308 50.109-19.308 50.109s-19.642-22.304-19.769-49.929 19.308-50.108 19.308-50.108 19.641 22.304 19.769 49.928z" fill="#6c63ff"/><path fill="#3f3d56" d="M851 437.057h2v79h-2z"/><path d="M871.458 447.124c.127 27.625-19.308 50.109-19.308 50.109s-19.642-22.304-19.77-49.929 19.309-50.108 19.309-50.108 19.641 22.304 19.769 49.928z" fill="#6c63ff"/><ellipse cx="587.5" cy="163.5" rx="38" ry="8.55" fill="#6c63ff"/><path d="M630.5 44c0 24.3-44 93-44 93s-44-68.7-44-93a44 44 0 0188 0z" fill="#6c63ff"/><circle cx="586.5" cy="44" r="25" fill="#f2f2f2"/></svg>